<?xml version="1.0" encoding="UTF-8" standalone="no"?>
<!-- Created with Inkscape (http://www.inkscape.org/) -->

<svg
   width="1280"
   height="720"
   viewBox="0 0 338.66667 190.5"
   version="1.1"
   id="svg8"
   inkscape:version="1.1 (c4e8f9ed74, 2021-05-24)"
   sodipodi:docname="nord-muntains.svg"
   inkscape:export-filename="/home/wiz/Pictures/Wallpapers/svg/nord-muntains.png"
   inkscape:export-xdpi="96"
   inkscape:export-ydpi="96"
   xmlns:inkscape="http://www.inkscape.org/namespaces/inkscape"
   xmlns:sodipodi="http://sodipodi.sourceforge.net/DTD/sodipodi-0.dtd"
   xmlns="http://www.w3.org/2000/svg"
   xmlns:svg="http://www.w3.org/2000/svg"
   xmlns:rdf="http://www.w3.org/1999/02/22-rdf-syntax-ns#"
   xmlns:cc="http://creativecommons.org/ns#"
   xmlns:dc="http://purl.org/dc/elements/1.1/">
  <defs
     id="defs2" />
  <sodipodi:namedview
     id="base"
     pagecolor="#000000"
     bordercolor="#666666"
     borderopacity="1.0"
     inkscape:pageopacity="0"
     inkscape:pageshadow="2"
     inkscape:zoom="0.24748738"
     inkscape:cx="814.18295"
     inkscape:cy="189.90868"
     inkscape:document-units="px"
     inkscape:current-layer="layer2"
     showgrid="false"
     fit-margin-top="0"
     fit-margin-left="0"
     fit-margin-right="0"
     fit-margin-bottom="0"
     inkscape:pagecheckerboard="0"
     units="px"
     inkscape:window-width="1346"
     inkscape:window-height="727"
     inkscape:window-x="10"
     inkscape:window-y="31"
     inkscape:window-maximized="1" />
  <metadata
     id="metadata5">
    <rdf:RDF>
      <cc:Work
         rdf:about="">
        <dc:format>image/svg+xml</dc:format>
        <dc:type
           rdf:resource="http://purl.org/dc/dcmitype/StillImage" />
      </cc:Work>
    </rdf:RDF>
  </metadata>
  <g
     inkscape:groupmode="layer"
     id="layer2"
     inkscape:label="img"
     style="display:inline"
     transform="translate(0,-57.816591)">
    <g
       id="g5117"
       transform="translate(-10.848277,-24.227506)">
      <path
         style="display:inline;vector-effect:none;fill:#3f4859;fill-opacity:1;fill-rule:evenodd;stroke:none;stroke-width:0.236219;stroke-linecap:butt;stroke-linejoin:miter;stroke-miterlimit:4;stroke-dasharray:none;stroke-dashoffset:0;stroke-opacity:1"
         d="M 10.848278,82.044097 V 272.5441 H 349.51494 V 82.044097 Z"
         id="path3236"
         inkscape:connector-curvature="0" />
      <g
         id="g1670"
         transform="matrix(0.26458333,0,0,0.26458333,10.848277,52.194711)">
        <path
           id="rect857"
           style="display:inline;opacity:1;vector-effect:none;fill:#2e3440;fill-opacity:1;fill-rule:evenodd;stroke:none;stroke-width:1.00078;stroke-linecap:butt;stroke-linejoin:miter;stroke-miterlimit:4;stroke-dasharray:none;stroke-dashoffset:0;stroke-opacity:1"
           d="m 664.00391,392.11719 c -32.13448,-0.1286 -83.4961,52.91797 -83.4961,52.91797 C 560.47008,457.71437 406.31566,591.10932 342.45312,587.125 303.78455,590.66332 182.03061,452.90781 146.90039,451.13867 116.53659,445.61799 29.014647,543.5044 0,582.86523 V 775 H 1280 V 425.63867 c -5.2298,6.98764 -86.1111,114.37922 -121.9102,119.39453 -46.1242,-7.70843 -22.9869,-29.54686 -91.8574,-36.8164 -63.1838,2.78008 -102.41854,77.71093 -147.65818,63.81054 C 817.73274,541.19362 758.01869,391.15312 665.51758,392.16406 c -0.5002,-0.0303 -1.00357,-0.045 -1.51367,-0.0469 z"
           transform="translate(0,57.81659)" />
        <path
           id="path870"
           style="display:inline;opacity:1;vector-effect:none;fill:#fdfdfd;fill-rule:evenodd;stroke-width:4.31203"
           d="m 678.00203,333.13019 a 5.054708,5.054708 0 0 1 -5.0547,5.05471 5.054708,5.054708 0 0 1 -5.05471,-5.05471 5.054708,5.054708 0 0 1 5.05471,-5.05471 5.054708,5.054708 0 0 1 5.0547,5.05471 z" />
        <path
           id="circle872"
           style="display:inline;opacity:1;vector-effect:none;fill:#fdfdfd;fill-rule:evenodd;stroke-width:4.31203"
           d="m 792.0649,366.20258 a 5.054708,5.054708 0 0 1 -5.05471,5.0547 5.054708,5.054708 0 0 1 -5.05471,-5.0547 5.054708,5.054708 0 0 1 5.05471,-5.05471 5.054708,5.054708 0 0 1 5.05471,5.05471 z" />
        <path
           id="circle874"
           style="display:inline;opacity:1;vector-effect:none;fill:#fdfdfd;fill-rule:evenodd;stroke-width:4.31203"
           d="m 819.58645,272.20065 a 5.054708,5.054708 0 0 1 -5.05471,5.05471 5.054708,5.054708 0 0 1 -5.05471,-5.05471 5.054708,5.054708 0 0 1 5.05471,-5.0547 5.054708,5.054708 0 0 1 5.05471,5.0547 z" />
        <path
           id="circle876"
           style="display:inline;opacity:1;vector-effect:none;fill:#fdfdfd;fill-rule:evenodd;stroke-width:4.31203"
           d="m 668.39693,258.2612 a 5.054708,5.054708 0 0 1 -5.05471,5.05471 5.054708,5.054708 0 0 1 -5.0547,-5.05471 5.054708,5.054708 0 0 1 5.0547,-5.05471 5.054708,5.054708 0 0 1 5.05471,5.05471 z" />
        <path
           id="circle878"
           style="display:inline;opacity:1;vector-effect:none;fill:#fdfdfd;fill-rule:evenodd;stroke-width:4.31203"
           d="m 603.16738,207.86473 a 5.054708,5.054708 0 0 1 -5.05471,5.05471 5.054708,5.054708 0 0 1 -5.05471,-5.05471 5.054708,5.054708 0 0 1 5.05471,-5.05471 5.054708,5.054708 0 0 1 5.05471,5.05471 z" />
        <path
           id="circle880"
           style="display:inline;opacity:1;vector-effect:none;fill:#fdfdfd;fill-rule:evenodd;stroke-width:4.31203"
           d="m 537.40175,174.80321 a 5.054708,5.054708 0 0 1 -5.0547,5.05471 5.054708,5.054708 0 0 1 -5.05471,-5.05471 5.054708,5.054708 0 0 1 5.05471,-5.05471 5.054708,5.054708 0 0 1 5.0547,5.05471 z" />
        <path
           id="circle882"
           style="display:inline;opacity:1;vector-effect:none;fill:#fdfdfd;fill-rule:evenodd;stroke-width:4.31203"
           d="m 470.02776,167.29735 a 5.054708,5.054708 0 0 1 -5.05471,5.05471 5.054708,5.054708 0 0 1 -5.05471,-5.05471 5.054708,5.054708 0 0 1 5.05471,-5.05471 5.054708,5.054708 0 0 1 5.05471,5.05471 z" />
      </g>
    </g>
  </g>
</svg>
